<?xml version="1.0" encoding="iso-8859-1"?>
<!-- Generator: Adobe Illustrator 19.0.0, SVG Export Plug-In . SVG Version: 6.00 Build 0)  -->
<svg version="1.1" id="Capa_1" xmlns="http://www.w3.org/2000/svg" xmlns:xlink="http://www.w3.org/1999/xlink" x="0px" y="0px"
	 viewBox="0 0 512 512" style="enable-background:new 0 0 512 512;" xml:space="preserve">
<linearGradient id="SVGID_1_" gradientUnits="userSpaceOnUse" x1="0" y1="258" x2="512" y2="258" gradientTransform="matrix(1 0 0 -1 0 514)">
	<stop  offset="0" style="stop-color:#80D8FF"/>
	<stop  offset="1" style="stop-color:#EA80FC"/>
</linearGradient>
<path style="fill:url(#SVGID_1_);" d="M492,72h-96V20c0-11.046-8.954-20-20-20s-20,8.954-20,20v52H156V20c0-11.046-8.954-20-20-20
	s-20,8.954-20,20v52H20C8.954,72,0,80.954,0,92v400c0,11.046,8.954,20,20,20h472c11.046,0,20-8.954,20-20V92
	C512,80.954,503.046,72,492,72z M472,112v50H40v-50H472z M40,472V202h432v270H40z M335.798,277.857c7.81,7.811,7.81,20.475,0,28.285
	l-90,90c-3.751,3.75-8.838,5.857-14.143,5.857s-10.392-2.107-14.143-5.858l-41.311-41.312c-7.811-7.811-7.81-20.474,0.001-28.284
	c7.81-7.81,20.473-7.811,28.284,0.001l27.168,27.169l75.857-75.858C315.323,270.047,327.987,270.047,335.798,277.857z"/>
<g>
</g>
<g>
</g>
<g>
</g>
<g>
</g>
<g>
</g>
<g>
</g>
<g>
</g>
<g>
</g>
<g>
</g>
<g>
</g>
<g>
</g>
<g>
</g>
<g>
</g>
<g>
</g>
<g>
</g>
</svg>
